<svg width="304" height="39" viewBox="0 0 304 39" fill="none" xmlns="http://www.w3.org/2000/svg">
<path d="M21.1689 28.5277C22.119 29.5502 22.6469 30.8925 22.6469 32.2861V37.9529L15.0377 30.3873L18.4597 25.6573L21.1689 28.5277Z" fill="white" style="fill:white;fill-opacity:1;"/>
<path d="M13.021 32.0347L6.98446 31.8806L11.5062 37.9529H22.6469L13.021 32.0347Z" fill="white" style="fill:white;fill-opacity:1;"/>
<path d="M18.4597 22.2627L11.3372 29.0067L11.262 18.9401L18.4597 15.4862V22.2627Z" fill="white" style="fill:white;fill-opacity:1;"/>
<path d="M3.31666 25.6573L11.3372 29.0067L6.71677 21.0789L0 18.8003L3.31666 25.6573Z" fill="white" style="fill:white;fill-opacity:1;"/>
<path d="M8.46343 9.85671L7.91451 18.9401L2.4478 11.4826L5.4261 4.57491L8.46343 9.85671Z" fill="white" style="fill:white;fill-opacity:1;"/>
<path d="M18.4597 13.2082L7.91451 18.9401L11.305 11.4826H18.4597V13.2082Z" fill="white" style="fill:white;fill-opacity:1;"/>
<path d="M20.869 6.63847V0L11.5062 3.84553L11.262 9.35082L20.869 6.63847Z" fill="white" style="fill:white;fill-opacity:1;"/>
<path d="M26.4283 28.6029C25.4781 29.6254 24.9503 30.9677 24.9503 32.3613V38.0281L32.5594 30.4625L29.1375 25.7325L26.4283 28.6029Z" fill="white" style="fill:white;fill-opacity:1;"/>
<path d="M34.5761 32.1099L40.6127 31.9558L36.091 38.0281H24.9503L34.5761 32.1099Z" fill="white" style="fill:white;fill-opacity:1;"/>
<path d="M29.1375 22.3379L36.26 29.0819L36.3351 19.0153L29.1375 15.5613V22.3379Z" fill="white" style="fill:white;fill-opacity:1;"/>
<path d="M44.2805 25.7325L36.26 29.0819L40.8804 21.1541L47.5972 18.8755L44.2805 25.7325Z" fill="white" style="fill:white;fill-opacity:1;"/>
<path d="M39.1337 9.93191L39.6827 19.0153L45.1494 11.5578L42.1711 4.6501L39.1337 9.93191Z" fill="white" style="fill:white;fill-opacity:1;"/>
<path d="M29.1375 13.2834L39.6827 19.0153L36.2922 11.5578H29.1375V13.2834Z" fill="white" style="fill:white;fill-opacity:1;"/>
<path d="M26.7281 6.71366V0.0751953L36.091 3.92072L36.3351 9.42602L26.7281 6.71366Z" fill="white" style="fill:white;fill-opacity:1;"/>
<mask id="path-3-outside-1_973_925" maskUnits="userSpaceOnUse" x="59.749" y="1.5752" width="244" height="35" fill="black">
<rect fill="white" x="59.749" y="1.5752" width="244" height="35"/>
<path d="M60.749 34.8343V5.50409H71.8046C79.4362 5.50409 82.6126 8.14422 82.6126 13.012C82.6126 16.6421 81.0038 18.7872 77.8686 19.8185C81.2925 20.7673 83.1901 22.8299 83.1901 26.6251C83.1901 31.9466 79.725 34.8343 72.0933 34.8343H60.749ZM71.9696 18.1685C76.301 18.2097 78.6524 16.7659 78.6524 13.3832C78.6524 10.3306 76.6723 8.8455 71.9283 8.8455H64.668V18.1685H71.9696ZM64.668 21.4686V31.3691H71.6396C77.0023 31.3691 79.1062 29.6365 79.1062 26.3364C79.1062 22.9124 76.6311 21.4686 71.7221 21.4686H64.668Z"/>
<path d="M105.497 28.9765C103.846 32.6067 100.216 35.4531 94.9773 35.4531C89.9033 35.4531 87.2631 32.9779 87.2631 29.1828C87.2631 26.7076 88.4182 24.7275 90.3158 23.5725C90.9758 23.1187 91.6358 22.8299 92.3371 22.5412C93.7809 22.0462 95.761 21.6336 98.8962 21.1799C103.063 20.5611 105.332 20.1898 105.332 17.9622C105.332 15.4046 103.64 13.7957 99.2262 13.7957C94.5647 13.7957 92.2959 16.0646 92.0896 19.3648H88.0057C88.1294 17.6322 88.6657 16.1471 89.532 14.8271C91.3471 12.1869 94.5647 10.6193 99.0612 10.6193C106.404 10.6193 109.209 13.7132 109.209 18.581V34.8343H105.95L105.497 28.9765ZM96.2148 32.2767C98.9374 32.2767 101.206 31.2041 102.815 29.4715C104.465 27.7389 105.373 25.6763 105.373 23.6962V21.9637C104.341 22.8299 102.361 23.2837 99.7625 23.7375C96.1736 24.2738 94.6472 24.6863 93.3272 25.5526C92.2134 26.2539 91.6358 27.2852 91.6358 28.6877C91.6358 30.9153 93.1209 32.2767 96.2148 32.2767Z"/>
<path d="M127.627 34.8343H125.028C122.924 34.8343 121.274 34.5455 120.119 34.0092C117.809 32.8954 116.984 30.4203 116.984 25.7176V14.8271H112.363V11.4031H114.632C115.334 11.4031 115.87 11.3619 116.241 11.1969C116.942 10.9081 117.107 10.1243 117.231 8.35048C117.231 8.14422 117.231 7.77295 117.272 7.31918C117.272 6.37038 117.314 5.38033 117.314 5.05032H120.696V11.2794H127.627V14.8271H120.696V25.1401C120.696 26.8726 120.82 28.1102 121.109 28.9352C121.728 30.6678 123.13 31.0803 125.935 31.0803H127.627V34.8343Z"/>
<path d="M145.916 34.8343H143.317C141.213 34.8343 139.563 34.5455 138.408 34.0092C136.098 32.8954 135.273 30.4203 135.273 25.7176V14.8271H130.653V11.4031H132.922C133.623 11.4031 134.159 11.3619 134.531 11.1969C135.232 10.9081 135.397 10.1243 135.521 8.35048C135.521 8.14422 135.521 7.77295 135.562 7.31918C135.562 6.37038 135.603 5.38033 135.603 5.05032H138.986V11.2794H145.916V14.8271H138.986V25.1401C138.986 26.8726 139.11 28.1102 139.398 28.9352C140.017 30.6678 141.42 31.0803 144.225 31.0803H145.916V34.8343Z"/>
<path d="M150.419 34.8343V3.27648H154.42V34.8343H150.419Z"/>
<path d="M182.35 27.8214C180.989 32.6892 177.029 35.4531 171.171 35.4531C163.333 35.4531 159.414 30.8328 159.414 23.49V22.995C159.414 20.5198 159.909 18.3747 160.858 16.4771C162.797 12.7644 166.427 10.6193 171.294 10.6193C173.893 10.6193 176.038 11.1556 177.689 12.2694C181.071 14.497 182.68 18.251 182.68 22.4999V24.3975H163.374C163.663 29.2653 166.468 32.0704 171.336 32.0704C174.76 32.0704 177.152 30.5853 178.019 27.8214H182.35ZM171.336 13.8783C166.798 13.8783 163.91 16.6421 163.415 21.2211H178.679C178.349 16.7246 175.873 13.8783 171.336 13.8783Z"/>
<path d="M212.06 24.2738C211.359 31.2454 207.398 35.4531 199.56 35.4531C191.393 35.4531 186.855 30.7091 186.855 21.4274V19.2823C186.855 10.0418 191.64 5.00907 199.726 5.00907C206.821 5.00907 211.07 8.51549 211.854 15.6108H207.646C207.11 11.1144 204.593 8.63924 199.726 8.63924C194.156 8.63924 190.98 12.3932 190.98 19.4885V21.2624C190.98 27.9864 194.033 31.6166 199.726 31.6166C204.717 31.6166 207.275 28.8115 207.77 24.2738H212.06Z"/>
<path d="M220.887 34.8343H217.051V3.27648H220.887V16.0234C222.331 12.7644 225.219 10.6193 229.426 10.6193C235.49 10.6193 238.461 14.4145 238.461 20.4373V34.8343H234.459V21.4274C234.459 17.0959 232.644 14.1258 227.983 14.1258C223.445 14.1258 220.887 17.5497 220.887 22.4587V34.8343Z"/>
<path d="M261.239 28.9765C259.589 32.6067 255.959 35.4531 250.72 35.4531C245.646 35.4531 243.006 32.9779 243.006 29.1828C243.006 26.7076 244.161 24.7275 246.058 23.5725C246.718 23.1187 247.378 22.8299 248.08 22.5412C249.523 22.0462 251.504 21.6336 254.639 21.1799C258.805 20.5611 261.074 20.1898 261.074 17.9622C261.074 15.4046 259.383 13.7957 254.969 13.7957C250.307 13.7957 248.038 16.0646 247.832 19.3648H243.748C243.872 17.6322 244.408 16.1471 245.275 14.8271C247.09 12.1869 250.307 10.6193 254.804 10.6193C262.147 10.6193 264.952 13.7132 264.952 18.581V34.8343H261.693L261.239 28.9765ZM251.957 32.2767C254.68 32.2767 256.949 31.2041 258.558 29.4715C260.208 27.7389 261.115 25.6763 261.115 23.6962V21.9637C260.084 22.8299 258.104 23.2837 255.505 23.7375C251.916 24.2738 250.39 24.6863 249.07 25.5526C247.956 26.2539 247.378 27.2852 247.378 28.6877C247.378 30.9153 248.863 32.2767 251.957 32.2767Z"/>
<path d="M273.177 8.26798C271.114 8.26798 270.331 7.52544 270.331 5.42159C270.331 3.31773 271.279 2.5752 273.177 2.5752C275.075 2.5752 275.982 3.31773 275.982 5.42159C275.982 7.48419 275.075 8.26798 273.177 8.26798ZM271.073 34.8343V11.2794H275.157V34.8343H271.073Z"/>
<path d="M285.427 34.8343H281.384V11.2794H284.767L285.179 16.6421C286.458 13.012 289.305 10.6193 293.801 10.6193C299.865 10.6193 303 14.5383 303 20.5198V34.8343H298.958V21.4274C298.958 17.0134 297.184 14.1258 292.605 14.1258C287.943 14.1258 285.427 17.4672 285.427 22.4999V34.8343Z"/>
</mask>
<path d="M60.749 34.8343V5.50409H71.8046C79.4362 5.50409 82.6126 8.14422 82.6126 13.012C82.6126 16.6421 81.0038 18.7872 77.8686 19.8185C81.2925 20.7673 83.1901 22.8299 83.1901 26.6251C83.1901 31.9466 79.725 34.8343 72.0933 34.8343H60.749ZM71.9696 18.1685C76.301 18.2097 78.6524 16.7659 78.6524 13.3832C78.6524 10.3306 76.6723 8.8455 71.9283 8.8455H64.668V18.1685H71.9696ZM64.668 21.4686V31.3691H71.6396C77.0023 31.3691 79.1062 29.6365 79.1062 26.3364C79.1062 22.9124 76.6311 21.4686 71.7221 21.4686H64.668Z" fill="white" style="fill:white;fill-opacity:1;"/>
<path d="M105.497 28.9765C103.846 32.6067 100.216 35.4531 94.9773 35.4531C89.9033 35.4531 87.2631 32.9779 87.2631 29.1828C87.2631 26.7076 88.4182 24.7275 90.3158 23.5725C90.9758 23.1187 91.6358 22.8299 92.3371 22.5412C93.7809 22.0462 95.761 21.6336 98.8962 21.1799C103.063 20.5611 105.332 20.1898 105.332 17.9622C105.332 15.4046 103.64 13.7957 99.2262 13.7957C94.5647 13.7957 92.2959 16.0646 92.0896 19.3648H88.0057C88.1294 17.6322 88.6657 16.1471 89.532 14.8271C91.3471 12.1869 94.5647 10.6193 99.0612 10.6193C106.404 10.6193 109.209 13.7132 109.209 18.581V34.8343H105.95L105.497 28.9765ZM96.2148 32.2767C98.9374 32.2767 101.206 31.2041 102.815 29.4715C104.465 27.7389 105.373 25.6763 105.373 23.6962V21.9637C104.341 22.8299 102.361 23.2837 99.7625 23.7375C96.1736 24.2738 94.6472 24.6863 93.3272 25.5526C92.2134 26.2539 91.6358 27.2852 91.6358 28.6877C91.6358 30.9153 93.1209 32.2767 96.2148 32.2767Z" fill="white" style="fill:white;fill-opacity:1;"/>
<path d="M127.627 34.8343H125.028C122.924 34.8343 121.274 34.5455 120.119 34.0092C117.809 32.8954 116.984 30.4203 116.984 25.7176V14.8271H112.363V11.4031H114.632C115.334 11.4031 115.87 11.3619 116.241 11.1969C116.942 10.9081 117.107 10.1243 117.231 8.35048C117.231 8.14422 117.231 7.77295 117.272 7.31918C117.272 6.37038 117.314 5.38033 117.314 5.05032H120.696V11.2794H127.627V14.8271H120.696V25.1401C120.696 26.8726 120.82 28.1102 121.109 28.9352C121.728 30.6678 123.13 31.0803 125.935 31.0803H127.627V34.8343Z" fill="white" style="fill:white;fill-opacity:1;"/>
<path d="M145.916 34.8343H143.317C141.213 34.8343 139.563 34.5455 138.408 34.0092C136.098 32.8954 135.273 30.4203 135.273 25.7176V14.8271H130.653V11.4031H132.922C133.623 11.4031 134.159 11.3619 134.531 11.1969C135.232 10.9081 135.397 10.1243 135.521 8.35048C135.521 8.14422 135.521 7.77295 135.562 7.31918C135.562 6.37038 135.603 5.38033 135.603 5.05032H138.986V11.2794H145.916V14.8271H138.986V25.1401C138.986 26.8726 139.11 28.1102 139.398 28.9352C140.017 30.6678 141.42 31.0803 144.225 31.0803H145.916V34.8343Z" fill="white" style="fill:white;fill-opacity:1;"/>
<path d="M150.419 34.8343V3.27648H154.42V34.8343H150.419Z" fill="white" style="fill:white;fill-opacity:1;"/>
<path d="M182.35 27.8214C180.989 32.6892 177.029 35.4531 171.171 35.4531C163.333 35.4531 159.414 30.8328 159.414 23.49V22.995C159.414 20.5198 159.909 18.3747 160.858 16.4771C162.797 12.7644 166.427 10.6193 171.294 10.6193C173.893 10.6193 176.038 11.1556 177.689 12.2694C181.071 14.497 182.68 18.251 182.68 22.4999V24.3975H163.374C163.663 29.2653 166.468 32.0704 171.336 32.0704C174.76 32.0704 177.152 30.5853 178.019 27.8214H182.35ZM171.336 13.8783C166.798 13.8783 163.91 16.6421 163.415 21.2211H178.679C178.349 16.7246 175.873 13.8783 171.336 13.8783Z" fill="white" style="fill:white;fill-opacity:1;"/>
<path d="M212.06 24.2738C211.359 31.2454 207.398 35.4531 199.56 35.4531C191.393 35.4531 186.855 30.7091 186.855 21.4274V19.2823C186.855 10.0418 191.64 5.00907 199.726 5.00907C206.821 5.00907 211.07 8.51549 211.854 15.6108H207.646C207.11 11.1144 204.593 8.63924 199.726 8.63924C194.156 8.63924 190.98 12.3932 190.98 19.4885V21.2624C190.98 27.9864 194.033 31.6166 199.726 31.6166C204.717 31.6166 207.275 28.8115 207.77 24.2738H212.06Z" fill="white" style="fill:white;fill-opacity:1;"/>
<path d="M220.887 34.8343H217.051V3.27648H220.887V16.0234C222.331 12.7644 225.219 10.6193 229.426 10.6193C235.49 10.6193 238.461 14.4145 238.461 20.4373V34.8343H234.459V21.4274C234.459 17.0959 232.644 14.1258 227.983 14.1258C223.445 14.1258 220.887 17.5497 220.887 22.4587V34.8343Z" fill="white" style="fill:white;fill-opacity:1;"/>
<path d="M261.239 28.9765C259.589 32.6067 255.959 35.4531 250.72 35.4531C245.646 35.4531 243.006 32.9779 243.006 29.1828C243.006 26.7076 244.161 24.7275 246.058 23.5725C246.718 23.1187 247.378 22.8299 248.08 22.5412C249.523 22.0462 251.504 21.6336 254.639 21.1799C258.805 20.5611 261.074 20.1898 261.074 17.9622C261.074 15.4046 259.383 13.7957 254.969 13.7957C250.307 13.7957 248.038 16.0646 247.832 19.3648H243.748C243.872 17.6322 244.408 16.1471 245.275 14.8271C247.09 12.1869 250.307 10.6193 254.804 10.6193C262.147 10.6193 264.952 13.7132 264.952 18.581V34.8343H261.693L261.239 28.9765ZM251.957 32.2767C254.68 32.2767 256.949 31.2041 258.558 29.4715C260.208 27.7389 261.115 25.6763 261.115 23.6962V21.9637C260.084 22.8299 258.104 23.2837 255.505 23.7375C251.916 24.2738 250.39 24.6863 249.07 25.5526C247.956 26.2539 247.378 27.2852 247.378 28.6877C247.378 30.9153 248.863 32.2767 251.957 32.2767Z" fill="white" style="fill:white;fill-opacity:1;"/>
<path d="M273.177 8.26798C271.114 8.26798 270.331 7.52544 270.331 5.42159C270.331 3.31773 271.279 2.5752 273.177 2.5752C275.075 2.5752 275.982 3.31773 275.982 5.42159C275.982 7.48419 275.075 8.26798 273.177 8.26798ZM271.073 34.8343V11.2794H275.157V34.8343H271.073Z" fill="white" style="fill:white;fill-opacity:1;"/>
<path d="M285.427 34.8343H281.384V11.2794H284.767L285.179 16.6421C286.458 13.012 289.305 10.6193 293.801 10.6193C299.865 10.6193 303 14.5383 303 20.5198V34.8343H298.958V21.4274C298.958 17.0134 297.184 14.1258 292.605 14.1258C287.943 14.1258 285.427 17.4672 285.427 22.4999V34.8343Z" fill="white" style="fill:white;fill-opacity:1;"/>
<path d="M60.749 34.8343V5.50409H71.8046C79.4362 5.50409 82.6126 8.14422 82.6126 13.012C82.6126 16.6421 81.0038 18.7872 77.8686 19.8185C81.2925 20.7673 83.1901 22.8299 83.1901 26.6251C83.1901 31.9466 79.725 34.8343 72.0933 34.8343H60.749ZM71.9696 18.1685C76.301 18.2097 78.6524 16.7659 78.6524 13.3832C78.6524 10.3306 76.6723 8.8455 71.9283 8.8455H64.668V18.1685H71.9696ZM64.668 21.4686V31.3691H71.6396C77.0023 31.3691 79.1062 29.6365 79.1062 26.3364C79.1062 22.9124 76.6311 21.4686 71.7221 21.4686H64.668Z" stroke="white" style="stroke:white;stroke-opacity:1;" stroke-width="0.4" mask="url(#path-3-outside-1_973_925)"/>
<path d="M105.497 28.9765C103.846 32.6067 100.216 35.4531 94.9773 35.4531C89.9033 35.4531 87.2631 32.9779 87.2631 29.1828C87.2631 26.7076 88.4182 24.7275 90.3158 23.5725C90.9758 23.1187 91.6358 22.8299 92.3371 22.5412C93.7809 22.0462 95.761 21.6336 98.8962 21.1799C103.063 20.5611 105.332 20.1898 105.332 17.9622C105.332 15.4046 103.64 13.7957 99.2262 13.7957C94.5647 13.7957 92.2959 16.0646 92.0896 19.3648H88.0057C88.1294 17.6322 88.6657 16.1471 89.532 14.8271C91.3471 12.1869 94.5647 10.6193 99.0612 10.6193C106.404 10.6193 109.209 13.7132 109.209 18.581V34.8343H105.95L105.497 28.9765ZM96.2148 32.2767C98.9374 32.2767 101.206 31.2041 102.815 29.4715C104.465 27.7389 105.373 25.6763 105.373 23.6962V21.9637C104.341 22.8299 102.361 23.2837 99.7625 23.7375C96.1736 24.2738 94.6472 24.6863 93.3272 25.5526C92.2134 26.2539 91.6358 27.2852 91.6358 28.6877C91.6358 30.9153 93.1209 32.2767 96.2148 32.2767Z" stroke="white" style="stroke:white;stroke-opacity:1;" stroke-width="0.4" mask="url(#path-3-outside-1_973_925)"/>
<path d="M127.627 34.8343H125.028C122.924 34.8343 121.274 34.5455 120.119 34.0092C117.809 32.8954 116.984 30.4203 116.984 25.7176V14.8271H112.363V11.4031H114.632C115.334 11.4031 115.87 11.3619 116.241 11.1969C116.942 10.9081 117.107 10.1243 117.231 8.35048C117.231 8.14422 117.231 7.77295 117.272 7.31918C117.272 6.37038 117.314 5.38033 117.314 5.05032H120.696V11.2794H127.627V14.8271H120.696V25.1401C120.696 26.8726 120.82 28.1102 121.109 28.9352C121.728 30.6678 123.13 31.0803 125.935 31.0803H127.627V34.8343Z" stroke="white" style="stroke:white;stroke-opacity:1;" stroke-width="0.4" mask="url(#path-3-outside-1_973_925)"/>
<path d="M145.916 34.8343H143.317C141.213 34.8343 139.563 34.5455 138.408 34.0092C136.098 32.8954 135.273 30.4203 135.273 25.7176V14.8271H130.653V11.4031H132.922C133.623 11.4031 134.159 11.3619 134.531 11.1969C135.232 10.9081 135.397 10.1243 135.521 8.35048C135.521 8.14422 135.521 7.77295 135.562 7.31918C135.562 6.37038 135.603 5.38033 135.603 5.05032H138.986V11.2794H145.916V14.8271H138.986V25.1401C138.986 26.8726 139.11 28.1102 139.398 28.9352C140.017 30.6678 141.42 31.0803 144.225 31.0803H145.916V34.8343Z" stroke="white" style="stroke:white;stroke-opacity:1;" stroke-width="0.4" mask="url(#path-3-outside-1_973_925)"/>
<path d="M150.419 34.8343V3.27648H154.42V34.8343H150.419Z" stroke="white" style="stroke:white;stroke-opacity:1;" stroke-width="0.4" mask="url(#path-3-outside-1_973_925)"/>
<path d="M182.35 27.8214C180.989 32.6892 177.029 35.4531 171.171 35.4531C163.333 35.4531 159.414 30.8328 159.414 23.49V22.995C159.414 20.5198 159.909 18.3747 160.858 16.4771C162.797 12.7644 166.427 10.6193 171.294 10.6193C173.893 10.6193 176.038 11.1556 177.689 12.2694C181.071 14.497 182.68 18.251 182.68 22.4999V24.3975H163.374C163.663 29.2653 166.468 32.0704 171.336 32.0704C174.76 32.0704 177.152 30.5853 178.019 27.8214H182.35ZM171.336 13.8783C166.798 13.8783 163.91 16.6421 163.415 21.2211H178.679C178.349 16.7246 175.873 13.8783 171.336 13.8783Z" stroke="white" style="stroke:white;stroke-opacity:1;" stroke-width="0.4" mask="url(#path-3-outside-1_973_925)"/>
<path d="M212.06 24.2738C211.359 31.2454 207.398 35.4531 199.56 35.4531C191.393 35.4531 186.855 30.7091 186.855 21.4274V19.2823C186.855 10.0418 191.64 5.00907 199.726 5.00907C206.821 5.00907 211.07 8.51549 211.854 15.6108H207.646C207.11 11.1144 204.593 8.63924 199.726 8.63924C194.156 8.63924 190.98 12.3932 190.98 19.4885V21.2624C190.98 27.9864 194.033 31.6166 199.726 31.6166C204.717 31.6166 207.275 28.8115 207.77 24.2738H212.06Z" stroke="white" style="stroke:white;stroke-opacity:1;" stroke-width="0.4" mask="url(#path-3-outside-1_973_925)"/>
<path d="M220.887 34.8343H217.051V3.27648H220.887V16.0234C222.331 12.7644 225.219 10.6193 229.426 10.6193C235.49 10.6193 238.461 14.4145 238.461 20.4373V34.8343H234.459V21.4274C234.459 17.0959 232.644 14.1258 227.983 14.1258C223.445 14.1258 220.887 17.5497 220.887 22.4587V34.8343Z" stroke="white" style="stroke:white;stroke-opacity:1;" stroke-width="0.4" mask="url(#path-3-outside-1_973_925)"/>
<path d="M261.239 28.9765C259.589 32.6067 255.959 35.4531 250.72 35.4531C245.646 35.4531 243.006 32.9779 243.006 29.1828C243.006 26.7076 244.161 24.7275 246.058 23.5725C246.718 23.1187 247.378 22.8299 248.08 22.5412C249.523 22.0462 251.504 21.6336 254.639 21.1799C258.805 20.5611 261.074 20.1898 261.074 17.9622C261.074 15.4046 259.383 13.7957 254.969 13.7957C250.307 13.7957 248.038 16.0646 247.832 19.3648H243.748C243.872 17.6322 244.408 16.1471 245.275 14.8271C247.09 12.1869 250.307 10.6193 254.804 10.6193C262.147 10.6193 264.952 13.7132 264.952 18.581V34.8343H261.693L261.239 28.9765ZM251.957 32.2767C254.68 32.2767 256.949 31.2041 258.558 29.4715C260.208 27.7389 261.115 25.6763 261.115 23.6962V21.9637C260.084 22.8299 258.104 23.2837 255.505 23.7375C251.916 24.2738 250.39 24.6863 249.07 25.5526C247.956 26.2539 247.378 27.2852 247.378 28.6877C247.378 30.9153 248.863 32.2767 251.957 32.2767Z" stroke="white" style="stroke:white;stroke-opacity:1;" stroke-width="0.4" mask="url(#path-3-outside-1_973_925)"/>
<path d="M273.177 8.26798C271.114 8.26798 270.331 7.52544 270.331 5.42159C270.331 3.31773 271.279 2.5752 273.177 2.5752C275.075 2.5752 275.982 3.31773 275.982 5.42159C275.982 7.48419 275.075 8.26798 273.177 8.26798ZM271.073 34.8343V11.2794H275.157V34.8343H271.073Z" stroke="white" style="stroke:white;stroke-opacity:1;" stroke-width="0.4" mask="url(#path-3-outside-1_973_925)"/>
<path d="M285.427 34.8343H281.384V11.2794H284.767L285.179 16.6421C286.458 13.012 289.305 10.6193 293.801 10.6193C299.865 10.6193 303 14.5383 303 20.5198V34.8343H298.958V21.4274C298.958 17.0134 297.184 14.1258 292.605 14.1258C287.943 14.1258 285.427 17.4672 285.427 22.4999V34.8343Z" stroke="white" style="stroke:white;stroke-opacity:1;" stroke-width="0.4" mask="url(#path-3-outside-1_973_925)"/>
</svg>
